<svg xmlns="http://www.w3.org/2000/svg" id="Capa_1" width="606.45" height="104.496" style="max-height:500px" viewBox="118.11 226.88 606.45 104.496"><defs><style>.st0{isolation:isolate}</style></defs><path d="M397.65 250.16c.58 1.44 2.71 1.1 2.8-.45l1.61-20.94c.03-.72.65-1.28 1.37-1.23l36.01 1.83c1.15.08 1.98 1.12 1.81 2.26l-8.83 47.1c-.03.22-.03.45.01.67l8.7 49.32a1.96 1.96 0 0 1-1.93 2.33h-35.07c-.82 0-1.55-.51-1.84-1.27l-8.94-23.85c-.49-1.3-2.42-.95-2.42.44v22.72c0 1.08-.88 1.96-1.96 1.96h-41.01c-1.24 0-2.17-1.14-1.92-2.36l9.32-48.71c.04-.17.05-.35.04-.52l-3.8-50.5a1.96 1.96 0 0 1 1.96-2.08l31.59.57c.71 0 1.36.44 1.62 1.1zM541.08 227.26l31.84 1.32a3.78 3.78 0 0 1 3.63 3.78v18.38c0 1.61 2.22 2.05 2.84.56l11.79-21.26c.7-1.7 2.51-2.65 4.31-2.26l30.01 6.52c2.18.47 3.48 3.84 2.81 5.97l-12.73 30.82a3.75 3.75 0 0 1-2.32 2.42l-13.01 4.71c-1.29.47-1.26 2.31.05 2.73l15.26 7.17c1.2.39 2.14 1.35 2.48 2.57l10.15 35.53c.69 2.42-1.13 4.83-3.64 4.83h-31.08a3.8 3.8 0 0 1-3.4-2.11l-10.85-23.06c-.76-1.54-3.08-1.03-3.12.69l-.42 20.76a3.79 3.79 0 0 1-3.79 3.71h-35.62c-2.16 0-3.89-1.81-3.78-2.84l4.81-96.35c.09-3.14 1.79-4.69 3.8-4.61zM716.74 288.24l-.13-.48-20.51-57.62a3.526 3.526 0 0 0-4.03-2.28l-36.53 7.31c-1.92.38-3 2.44-2.23 4.23l3.68 8.59c.25.59.34 1.23.25 1.86l-5.94 42.19c-.07.47-.21.93-.41 1.35l-15.83 32.72c-1.11 2.29.56 4.95 3.1 4.95h31.77c1.68 0 3.12-1.2 3.43-2.85l4.44-19.13a4.63 4.63 0 0 1 3.73-3.71l2.93-.53a3.494 3.494 0 0 1 4.12 3.44v19.29c0 1.93 1.56 3.49 3.49 3.49h29c2.21 0 3.86-2.02 3.43-4.18l-7.76-38.63Zm-33.19-11.05-3.86 1.62c-2.55 1.07-5.36-.8-5.36-3.56v-10.6c0-2.13 1.73-3.86 3.86-3.86 1.54 0 2.94.92 3.55 2.34l3.86 8.99c.85 1.97-.08 4.26-2.06 5.09v-.02ZM331.88 288.24l-.13-.48-20.51-57.62a3.526 3.526 0 0 0-4.03-2.28l-36.53 7.31c-1.92.38-3 2.44-2.23 4.23l3.68 8.59c.25.59.34 1.23.25 1.86l-5.94 42.19c-.07.47-.21.93-.41 1.35l-15.83 32.72c-1.11 2.29.56 4.95 3.1 4.95h31.77c1.68 0 3.12-1.2 3.43-2.85l4.44-19.13a4.63 4.63 0 0 1 3.73-3.71l2.93-.53a3.494 3.494 0 0 1 4.12 3.44v19.29c0 1.93 1.56 3.49 3.49 3.49h29c2.21 0 3.86-2.02 3.43-4.18l-7.76-38.63Zm-33.19-11.05-3.86 1.62c-2.55 1.07-5.36-.8-5.36-3.56v-10.6c0-2.13 1.73-3.86 3.86-3.86 1.54 0 2.94.92 3.55 2.34l3.86 8.99c.85 1.97-.08 4.26-2.06 5.09v-.02ZM451 227.66l29.17-.25c.7 0 1.28.57 1.28 1.28l-1.66 62.96c0 .73.82 1.63 1.54 1.6l12.37-.82c.75-.03 1.31-.7 1.21-1.45l-2.52-36.45v-.62l1.52-23.69a3.17 3.17 0 0 1 3.3-2.98l25.46 1.21c1.78.08 3.14 1.64 3.01 3.44l-3.2 42.6c0 .13-.01.26 0 .38.68 17.01.84 22.29.87 23.92 0 .47-.09.93-.28 1.36l-12.69 28.6a3.17 3.17 0 0 1-2.84 1.89l-32.24.41c-.89.01-1.74-.36-2.35-1.01l-22.19-24.02c-.59-.64-.89-1.49-.85-2.36l1.68-29.58c0-.17 0-.33-.01-.5l-4.01-42.04c-.2-2.06 1.39-3.86 3.45-3.88zM120.85 230.85l4.78 34.59c.31 2.9.27 5.83-.13 8.71l-7.35 52.88c-.29 2.09 1.24 3.96 3.25 3.96H159c1.51 0 2.74-1.28 2.78-2.87l3.15-44.32c.03-1.4 1.75-1.92 2.48-.74l5.33 20.69c.62 1.01 1.69 1.6 2.82 1.59l20.63-.4c1.19-.02 2.28-.73 2.84-1.83l4.73-22.13c.69-1.35 2.64-2.45 2.53.78l-1 47.44c.05 1.32 2.1 1.92 3.13 1.87l32.15-.08c1.76 0 3.18-1.53 3.16-3.39l-.61-59.55c-.02-2.03-.19-4.05-.49-6.06l-7.22-31.53c-.29-1.87-1.81-3.24-3.6-3.24h-36.52c-1.59 0-2.95 1.21-3.21 2.87l-7.76 20.7c-.21 1.32-1.87 1.63-2.49.47l-17.68-21.69c-.79-1.45-2.26-2.35-3.85-2.35h-36.36c-1.85 0-3.29 1.7-3.08 3.64Z"/><g class="st0"><g class="st0"><path d="M174.98 350.8c0 4.4-2.94 6.25-6.88 6.25h-4.19v6.74h-3.8v-19.02h8.32c3.59 0 6.55 1.98 6.55 6.03m-3.91.08c0-1.66-1.09-2.42-2.77-2.42h-4.38v4.89h4.43c1.77 0 2.72-.82 2.72-2.47M192.21 363.79h-13.62v-19.02h13.21v3.72h-9.4v3.29h5.46v3.7h-5.46v4.59h9.81zM210.85 354.28c0 3.26-.92 5.6-2.58 7.31l1.41 2.07-2.91 1.9-1.36-1.98c-.87.35-1.77.52-2.83.52-5.19 0-8.26-4.02-8.26-9.81s3.07-9.81 8.26-9.81 8.26 4.02 8.26 9.81Zm-3.91 0c0-3.4-1.28-6.03-4.35-6.03s-4.35 2.64-4.35 6.03 1.36 6.22 4.43 6.22c.22 0 .44-.03.62-.05l-1.28-1.9 2.91-1.9 1.22 1.82c.6-1.06.79-2.58.79-4.19ZM230.01 355.39c0 5.52-2.88 8.7-7.72 8.7s-7.69-3.1-7.69-8.64v-10.68h3.8v10.63c0 3.04 1.47 4.97 3.89 4.97s3.91-1.88 3.91-4.92v-10.68h3.8v10.63ZM248.38 363.79h-13.62v-19.02h13.21v3.72h-9.4v3.29h5.46v3.7h-5.46v4.59h9.81zM267.84 363.79h-3.4l-6.98-10.38c-.46-.71-1.09-1.66-1.33-2.15 0 .71.05 3.1.05 4.16v8.37h-3.75v-19.02h3.64l6.74 10.06c.46.71 1.09 1.66 1.33 2.15 0-.71-.05-3.1-.05-4.16v-8.04h3.75v19.02Zm-2.28-24.08c0 2.42-1.28 3.91-3.12 3.91-1.14 0-1.66-.22-2.75-.84-.81-.46-1.06-.54-1.41-.54-.52 0-.76.35-.92 1.3h-2.45c0-2.42 1.28-3.91 3.12-3.91 1.14 0 1.66.22 2.75.84.81.46 1.06.54 1.41.54.52 0 .76-.35.92-1.3zM289.58 363.79h-4.19l-1.49-4.24h-6.96l-1.49 4.24h-4.08l7.28-19.02h3.7zm-6.98-7.86-1.22-3.45c-.38-1.11-.76-2.26-.95-2.96-.19.71-.57 1.85-.95 2.96l-1.22 3.45h4.35ZM306.38 358.03c0 3.62-2.28 6.06-7.47 6.06-3.18 0-5.95-1.33-7.39-3.45l2.74-2.45c1.33 1.55 3.04 2.17 4.86 2.17 2.26 0 3.32-.62 3.32-2.07 0-1.22-.65-1.77-4.24-2.58-3.51-.82-5.95-1.93-5.95-5.68 0-3.45 3.04-5.57 6.79-5.57 2.96 0 5.14 1.11 6.93 2.99l-2.74 2.66c-1.22-1.25-2.58-1.96-4.32-1.96-2.04 0-2.72.87-2.72 1.71 0 1.2.81 1.58 3.83 2.28 3.02.71 6.36 1.74 6.36 5.87ZM336.08 363.79h-3.8v-6.98c0-1.03.05-3.45.05-4.18-.27.71-.84 2.07-1.33 3.15l-3.86 8.45-3.86-8.45c-.49-1.09-1.06-2.45-1.33-3.15 0 .73.05 3.15.05 4.18v6.98h-3.72v-19.02h3.67l3.97 8.62c.49 1.06 1.06 2.5 1.3 3.18.24-.71.79-2.09 1.28-3.18l3.83-8.62h3.75zM357.82 363.79h-4.19l-1.49-4.24h-6.96l-1.49 4.24h-4.08l7.28-19.02h3.7zm-6.99-7.86-1.22-3.45c-.38-1.11-.76-2.26-.95-2.96-.19.71-.57 1.85-.95 2.96l-1.22 3.45h4.35ZM376.76 363.79h-3.4l-6.98-10.38c-.46-.71-1.09-1.66-1.33-2.15 0 .71.05 3.1.05 4.16v8.37h-3.75v-19.02h3.64l6.74 10.06c.46.71 1.09 1.66 1.33 2.15 0-.71-.05-3.1-.05-4.16v-8.04h3.75v19.02ZM397.36 354.25c0 6.14-3.45 9.84-8.4 9.84s-8.37-3.64-8.37-9.78 3.45-9.84 8.42-9.84 8.34 3.64 8.34 9.78Zm-3.91.05c0-3.86-1.85-6.06-4.51-6.06s-4.43 2.15-4.43 6.01 1.85 6.06 4.51 6.06 4.43-2.15 4.43-6.01M414.72 358.03c0 3.62-2.28 6.06-7.47 6.06-3.18 0-5.95-1.33-7.39-3.45l2.75-2.45c1.33 1.55 3.04 2.17 4.86 2.17 2.26 0 3.32-.62 3.32-2.07 0-1.22-.65-1.77-4.24-2.58-3.51-.82-5.95-1.93-5.95-5.68 0-3.45 3.04-5.57 6.79-5.57 2.96 0 5.14 1.11 6.93 2.99l-2.75 2.66c-1.22-1.25-2.58-1.96-4.32-1.96-2.04 0-2.72.87-2.72 1.71 0 1.2.82 1.58 3.83 2.28 3.02.71 6.36 1.74 6.36 5.87ZM421.92 359.2l-2.28 8.02h-2.55l.41-8.02h4.43ZM448.39 356.42c0 4.89-3.23 7.66-7.64 7.66-4.97 0-8.32-3.8-8.32-9.81s3.48-9.81 8.45-9.81c3.89 0 5.95 1.82 7.2 4.76l-3.61 1.5c-.71-1.41-1.58-2.47-3.64-2.47-2.85 0-4.48 2.5-4.48 6.03s1.66 6.09 4.51 6.09c2.61 0 3.5-1.22 3.72-2.88h-3.02v-3.56h6.82v2.5ZM467.82 363.79h-4.38l-3.4-6.85h-3.83v6.85h-3.8v-19.02h8.86c3.59 0 6.55 1.98 6.55 6.03 0 2.85-1.22 4.65-3.64 5.6zm-3.91-12.91c0-1.71-1.03-2.42-2.72-2.42h-4.97v4.89h4.97c1.77 0 2.72-.82 2.72-2.47M488.26 363.79h-4.19l-1.49-4.24h-6.96l-1.5 4.24h-4.08l7.28-19.02h3.7l7.23 19.02Zm-6.98-7.86-1.22-3.45c-.38-1.11-.76-2.26-.95-2.96-.19.71-.57 1.85-.95 2.96l-1.22 3.45h4.35ZM507.2 363.79h-3.4l-6.98-10.38c-.46-.71-1.09-1.66-1.33-2.15 0 .71.05 3.1.05 4.16v8.37h-3.75v-19.02h3.64l6.74 10.06c.46.71 1.09 1.66 1.33 2.15 0-.71-.05-3.1-.05-4.16v-8.04h3.75v19.02ZM527.5 354.28c0 6.69-4.84 9.51-9.73 9.51h-5.68v-19.02h5.95c5.44 0 9.46 2.55 9.46 9.51m-3.91 0c0-3.89-1.66-5.82-5.68-5.82h-2.01v11.63h1.88c3.99 0 5.82-2.34 5.82-5.82ZM544.92 363.79h-13.61v-19.02h13.21v3.72h-9.4v3.29h5.46v3.7h-5.46v4.59h9.81v3.72ZM562.5 358.03c0 3.62-2.28 6.06-7.47 6.06-3.18 0-5.95-1.33-7.39-3.45l2.75-2.45c1.33 1.55 3.04 2.17 4.86 2.17 2.26 0 3.32-.62 3.32-2.07 0-1.22-.65-1.77-4.24-2.58-3.51-.82-5.95-1.93-5.95-5.68 0-3.45 3.04-5.57 6.79-5.57 2.96 0 5.14 1.11 6.93 2.99l-2.75 2.66c-1.22-1.25-2.58-1.96-4.32-1.96-2.04 0-2.72.87-2.72 1.71 0 1.2.82 1.58 3.83 2.28 3.02.71 6.36 1.74 6.36 5.87ZM592.21 363.79h-3.8v-6.98c0-1.03.05-3.45.05-4.18-.27.71-.84 2.07-1.33 3.15l-3.86 8.45-3.86-8.45c-.49-1.09-1.06-2.45-1.33-3.15 0 .73.05 3.15.05 4.18v6.98h-3.72v-19.02h3.67l3.97 8.62c.49 1.06 1.06 2.5 1.3 3.18.24-.71.79-2.09 1.28-3.18l3.83-8.62h3.75zM610.71 363.79H597.1v-19.02h13.21v3.72h-9.4v3.29h5.46v3.7h-5.46v4.59h9.81v3.72ZM630.17 363.79h-3.4l-6.98-10.38c-.46-.71-1.09-1.66-1.33-2.15 0 .71.05 3.1.05 4.16v8.37h-3.75v-19.02h3.64l6.74 10.06c.46.71 1.09 1.66 1.33 2.15 0-.71-.05-3.1-.05-4.16v-8.04h3.75v19.02ZM648.57 348.52h-5.46v15.27h-3.8v-15.27h-5.46v-3.75h14.73v3.75ZM665.85 363.79h-13.61v-19.02h13.21v3.72h-9.4v3.29h5.46v3.7h-5.46v4.59h9.81v3.72ZM683.43 358.03c0 3.62-2.28 6.06-7.47 6.06-3.18 0-5.95-1.33-7.39-3.45l2.75-2.45c1.33 1.55 3.04 2.17 4.86 2.17 2.26 0 3.32-.62 3.32-2.07 0-1.22-.65-1.77-4.24-2.58-3.51-.82-5.95-1.93-5.95-5.68 0-3.45 3.04-5.57 6.79-5.57 2.96 0 5.14 1.11 6.93 2.99l-2.75 2.66c-1.22-1.25-2.58-1.96-4.32-1.96-2.04 0-2.72.87-2.72 1.71 0 1.2.82 1.58 3.83 2.28 3.02.71 6.36 1.74 6.36 5.87Z"/></g></g></svg>